<svg id="Layer_1" data-name="Layer 1" xmlns="http://www.w3.org/2000/svg" width="1024" height="560" viewBox="0 0 1024 560">
  <title>gen_1</title>
  <g id="Canada">
    <polygon points="867.61 424.79 870.94 422.62 869.15 421.73 867.23 423.26 867.61 424.79" />
    <polygon points="867.86 390.25 867.86 388.47 865.17 388.73 864.79 390.89 866.07 391.53 867.86 390.25" />
    <polygon points="884.52 474.08 882.98 473.7 882.34 471.92 886.95 469.75 887.58 467.59 882.98 469.5 875.56 474.6 873.39 474.6 873.39 474.6 873.39 474.6 873.39 477.15 871.85 478.3 872.49 479.57 870.06 481.99 870.96 482.88 875.31 484.16 878 481.99 879.27 482.24 879.27 484.15 881.45 485.05 879.02 487.85 880.17 489 881.45 488.36 883.89 485.74 884.78 484.79 885.67 485.3 885.67 486.57 887.85 486.83 889.38 488.36 890.92 487.84 891.63 486.14 892.45 484.15 888.74 482.24 890.92 478.92 890.66 477.14 884.77 477.14 884.52 474.08" />
    <polygon points="653.58 442.06 653.33 443.85 654.86 444.48 656.91 442.32 654.86 440.79 653.58 442.06" />
    <polygon points="668.75 418.98 668.03 418.49 667.14 419.38 667.33 419.73 667.79 420.57 668.75 418.98" />
    <polygon points="661.26 436.83 659.98 435.56 656.91 436.84 656.51 438.55 657.55 439.51 661.26 436.83" />
    <path d="M662.81,462.19l1.28-.89L665,453l-6.78-.25a27,27,0,0,0-.25,3.31c.1.41,2.67,2.14,2.69,2.16s-.26,1.53-.26,1.53Z" />
    <polygon points="821.16 383.27 819.37 379.83 816.55 379.32 814.12 380.85 820.26 384.16 821.16 383.27" />
    <polygon points="663.05 430.97 664.07 430.72 665.86 428.55 663.05 429.19 663.05 430.97" />
    <polygon points="861.49 484.42 858.68 487.22 859.32 491.17 861.5 491.17 861.11 489 863.29 485.05 861.49 484.42" />
    <polygon points="834.09 410.15 831.02 411.68 831.66 412.31 832.94 412.57 835.37 411.42 834.09 410.15" />
    <polygon points="838.7 416.52 836.91 414.73 835.37 416.01 834.73 418.05 836.27 419.57 838.7 416.52" />
    <polygon points="851.39 485.69 851.9 487.48 855.99 489.64 856.25 488.11 852.54 484.42 851.39 485.69" />
    <polygon points="862.64 475.88 857.78 473.08 857.78 473.77 858.43 475.25 859.47 476.27 862.13 477.16 862.64 475.88" />
    <polygon points="778.74 503.74 780.81 502.45 783.29 503.43 785.32 501.89 789.47 503.06 786.78 504.53 787.81 504.03 788.08 503.89 792.88 501.29 796.23 499.39 800.47 496.44 800.85 496.18 800.85 496.18 800.86 496.18 804.56 497.17 807.25 497.88 807.29 497.85 808.7 495.67 808.7 495.67 814.12 496 816.99 495.98 821.26 493.94 823.31 492.79 824.86 491.9 826.71 490.59 828.32 489.35 832.24 486.06 832.34 485.98 832.34 485.98 832.35 485.97 835.93 484.76 838.75 486.9 838.27 491.53 838.16 492.91 840.27 493.17 846.41 490.11 848.84 492.53 848.45 494.06 846.02 493.42 842.31 495.84 840.78 500.81 842.32 502.59 846.66 496.47 854.34 496.22 858.95 494.05 856.51 491.63 855.23 492.78 853.44 490.99 850.63 489.46 849.73 482.46 846.02 481.57 846.02 480.04 849.99 480.29 852.16 478.76 849.47 475.96 841.79 477.49 832.57 484.19 830.03 483.99 839.62 475.07 842.95 475.07 848.45 471.12 856.12 470.48 866.36 472 872.5 471.36 878 466.77 885.68 465.62 889.64 460.65 890.53 457.09 887.46 454.92 878.89 456.71 879.15 455.18 881.96 455.18 886.82 453.81 887.21 452.12 885.29 450.97 882.22 450.59 878.89 449.06 879.53 447.54 877.35 444.48 879.14 438.11 877.99 434.41 879.14 433.14 879.08 431.19 879.05 430.54 878.95 427.23 878.88 425.24 877.6 423.45 876.71 423.97 876.45 425.88 874.92 428.3 872.74 433.14 870.57 431.61 868.4 433.14 866.6 431.36 864.17 430.72 860.46 428.3 859.82 425.88 863.79 423.71 863.27 422.82 859.82 421.55 858.04 415.81 846.02 413.9 842.31 419.13 839.62 425.25 832.84 428.94 833.1 435.06 828.24 443.34 821.47 446.91 819.29 456.09 814.69 461.95 813.54 461.06 811.36 461.31 809.83 460.17 808.04 461.06 806.5 460.17 807.39 458 806.11 454.31 808.93 451.5 811.61 444.88 805.86 444.25 798.43 439.92 798.82 438.39 796 434.44 788.58 432.02 789.86 428.32 786.53 425.01 788.06 422.46 796.25 416.73 796.25 413.93 798.8 410.87 802.77 413.03 803.67 412.14 803.41 411.25 805.38 409.07 808.91 409.97 810.06 406.28 812.23 406.91 813.77 404.49 814.66 404.75 817.22 404.75 821.83 406.27 826.05 401.05 825.41 399.52 818.75 399.01 815.3 396.46 816.19 395.95 817.47 396.46 822.08 395.57 829.5 398.62 833.47 396.84 835.89 393.4 838.97 394.67 841.39 392.25 844.85 395.56 852.14 392.25 854.06 388.81 857.39 386.38 858.28 384.22 856.49 383.71 854.57 381.8 851.24 382.18 849.7 385.49 847.53 385.49 840.5 389.45 838.07 389.19 841.39 384.86 839.86 383.33 835.89 383.97 833.07 379.64 834.35 378.49 836.78 378.49 837.42 376.96 835.63 372.63 832.82 373.91 829.49 373.53 825.78 375.06 825.14 378.75 827.96 380.28 826.04 382.7 829.11 384.23 828.21 385.25 822.04 387.79 816.57 391.37 815.29 390.35 818.1 385.25 815.93 383.98 811.96 387.3 809.79 385.26 802.37 386.4 796.23 384.88 792.26 381.82 786.12 382.21 787.01 383.99 786.12 384.88 784.97 384.88 779.34 390.75 778.44 390.36 779.34 387.31 778.44 383.99 769.23 384 767.44 382.47 774.47 379.66 774.22 378.52 770.76 378.14 765.9 375.08 757.84 373.94 761.3 371.13 760.65 370.24 759.37 369.99 755.15 372.66 753.23 372.66 754.25 369.61 752.98 367.82 749.27 371.13 745.3 371.77 740.06 375.73 737.37 376.11 737.37 375.09 740.06 372.67 741.34 370.5 740.44 369.99 737.37 371.78 733.27 370.25 724.45 373.06 721.63 368.98 719.2 368.47 670.34 407.6 670.54 414.14 674.76 412.64 676.87 412.44 678.67 414.86 678.67 416.77 675.98 424.67 677.52 427.09 675.99 432.06 664.22 442.13 665.24 443.02 667.03 442.38 669.21 444.3 668.57 445.19 666.14 445.96 663.71 447.99 663.71 449.78 665.25 451.05 666.14 452.83 668.31 451.56 669.47 452.83 668.62 460.68 695.96 465 753.53 469.66 760.13 474.17 773.06 481.7 773.13 487.03 778.74 503.74" />
    <polygon points="664.9 422.85 664.49 423.4 664.07 423.97 664.92 424.55 665.4 423.12 664.9 422.85" />
    <polygon points="808.9 457.55 810.44 457.55 811.46 456.02 810.18 454.24 808.65 454.75 808.9 457.55" />
    <polygon points="824.89 440.09 825.78 439.2 825 438.51 824.52 439.47 824.89 440.09" />
    <polygon points="839.58 365.8 839.58 369.75 843.92 369.12 851.6 364.91 852.24 362.49 843.28 361.47 839.58 365.8 839.58 365.8 839.58 365.8" />
    <polygon points="841.54 354.5 837.53 356.89 834.45 356 833.81 354.47 835.67 352.46 839.19 350.25 841.74 349.24 845.2 350.77 844.18 352.93 842.25 354.08 841.54 354.5 841.54 354.5 841.54 354.5" />
    <polygon points="822.67 350.08 821.53 353.58 822.18 354.86 820 356.38 810.15 356.9 802.48 358.43 801.2 357.54 804.65 355.75 807.08 355.75 808.87 354.23 806.82 352.95 801.84 352.95 807.33 347.47 815.39 348.36 816.29 350.78 817.83 351.16 821.53 348.1 823.33 348.1 822.67 350.08 822.67 350.08 822.67 350.08" />
    <polygon points="855.31 352.93 854.59 356.58 854.03 359.43 866.06 361.21 874.37 359.68 879.23 361.2 879.88 359.93 884.48 358.78 882.95 355.98 889.09 357.25 890.88 356.36 891.77 353.3 890.62 348.97 870.28 348.72 870.02 351.14 868.75 352.29 872.46 353.56 876.16 352.03 880.77 352.03 881.06 353.84 881.41 355.98 871.82 356.88 860.17 355.99 861.07 350.51 859.28 350.51 855.95 348.73 854.03 350.51 855.31 352.93 855.31 352.93 855.31 352.93" />
    <polygon points="836.25 363.64 834.76 365.35 833.82 366.44 834.46 368.23 829.86 371.03 822.27 371.67 820.9 371.67 820.9 369.76 821.54 368.87 819.11 366.45 820.9 364.03 822.69 363.39 825.5 365.55 826.78 364.92 827.04 362.5 831.64 361.22 836.25 363.64 836.25 363.64 836.25 363.64" />
    <polygon points="791.09 359.96 781.35 363.45 773.56 367.61 769.98 367.61 766.27 368.25 764.99 366.47 766.27 363.03 769.98 361.5 774.28 358.35 782.26 353.6 788.65 354.23 793.26 358.82 791.09 359.96 791.09 359.96 791.09 359.96" />
    <polygon points="774.2 374.75 775.74 376.53 775.74 379.33 779.45 380.86 785.34 379.84 790.96 380.03 796.59 380.22 797.24 381.75 804.91 379.83 804.65 378.05 806.83 378.69 811.05 376.77 808.87 375.88 806.83 374.1 807.5 373.09 809.89 369.51 808.87 367.6 805.8 368.62 805.54 367.6 804.04 366.1 799.66 362.51 795.05 365.57 793.9 363.02 791.73 362.13 788.02 363.4 783.72 364.54 781.24 365.19 782.01 366.41 783.16 368.25 777.91 369.52 788.02 373.72 774.2 374.75 774.2 374.75 774.2 374.75" />
    <path d="M902.91,395.47l-2.82.64-1.79-1.53-1.92.51-1.8-2.67H892.8l-2.82-2.8,1.53-3.06h1.28l2.68-3.7-.26-1.53-1.92-.25-.26-1.78-2.35-.15-3.54-.23,1.28-2.68-5.5-.64.64-2.17-3.07-3.31-4.76,1.39-4.33-.25-2.68.39,4.6-6.75-1.15-1.27-3.07,1.53-3.46.89.39,1.91-8.31,5.48V371l5.5-7-.9-1.27-6.4,1.79-6.78,6.5s1.85,3,1.79,3.69-2.43,1.15-2.43,1.15v1.27l1.79.89,2.43,3.15,2.82-.35,1.92-1.53,7.68,2.42,2.68-.89,2.81-3.06,1.54,2.42,5.24.25,1.54,2.16-8.31,10.45-5.24,2.68v2.42l-.89,2.16-4.61.64-4.61-1.53h0l-2,1.8L851,403.39l-.25,2.42,1.15,1.27,2.17-.64,2.43.89,2.07-1.65,2.28-1,.64,2.42,4,1.53,1.54,4.59,3.11,1.69,3.67,2,3.33.89v-1.53L874,412.94V411l4.61.64.9,2.42,2.56,1.27,4.61-5-1-2h-2.43l-.64-1,1-2-1.28-3.69,2-1.34,2.9-3,2.18.64.64,2.8-1.28,2.42.63,3.39,1.29-.08,4-4.21,5.89-.38.51-3.06,1.92-.64" />
    <polygon points="875.91 368.21 882.56 368.59 884.74 367.32 879.49 364.9 875.52 366.43 875.91 368.21 875.91 368.21 875.91 368.21" />
    <polygon points="824.62 406.45 828.33 409.51 835.37 404.67 837.16 405.81 837.16 409.25 839.34 409.89 841.51 407.98 839.59 406.19 839.97 402.24 837.8 400.71 836.9 397.91 835.37 397.91 832.3 402.25 824.62 406.45 824.62 406.45 824.62 406.45" />
  </g>
  <g id="Australia">
    <g>
      <ellipse cx="786.74" cy="262.81" rx="1.14" ry="1.28" />
      <path d="M786.74,262.53s-.14.1-.14.29c0,.37.28.37.28,0C786.88,262.62,786.77,262.53,786.74,262.53Z" />
    </g>
    <polygon points="785.8 267.05 784.33 267.42 782.87 280.64 783.97 281.25 788.12 280.03 790.44 277.95 797.76 273.3 798.38 269.74 789.59 269.99 785.8 267.05" />
    <g>
      <ellipse cx="797.99" cy="264.6" rx="1.18" ry="1.25" />
      <path d="M798,264.35a.23.23,0,0,0-.18.25c0,.21.18.31.29.2a.28.28,0,0,0,.08-.2A.23.23,0,0,0,798,264.35Z" />
    </g>
    <path d="M838.16,226.88l1.58-4,7.21-8.4,1.46-7.34,2.93-4.16.37-2.08-4.16-12.85,2.07-3.31-.24-1.47-4.4-.49.49-2.08-1.1-3.8,2.07-2.69v-2.08l-7.33-7-.61-2.69s.77-3,.85-3.55a25,25,0,0,0-1.47-4l2.07-7.1-2.08-4.16L837,144h-2.32l1.1-7.34L835,133.8l.18-1.54-.56-1.74-.7-2.73L832.88,126l-.85,1-.85,4-2.07.37-3,9.64-.2,6.16-3.9,8-4,4.16-2.07-.37-.61-2.08-3.79-2-1.22-4.16-6.35-4.65,1.46-2.45.24-5.88,2.32-1.1,1.46-5.63-2.32.86-.85-1.1-2.93.86-1.22-2.08-3.54.61L795,127.56l-2.24.31,1.22,2.57-.61,1.23-2.56.61-4.15,2.33v1.23l-5,5.51,1.22,4.41-1.22.61-2.81-1.88-3.3,1,.24-2.32-2.32-3.92-1.47.37-1.46,2.08-3.79.49V144l-3.3,1.47-.85,3.19-2.32,2.94-2.32-.86-.85,3.79-2.93-2.08-1.83.62-.61,2.32.61,2.94-4.64,5.88-4.76,1-.49.86-13.6,2-10.21,8-1.47-2.57-1.47.62-.24,2.94-1.83,6.12.61,10-2.32.49-1.71,1.84,2.32,11.38-1.83,4.77.61,7.34-2.08,2.08-.49,2.57-2.44,2.08.37,2.33-2.93,1.47v1.22l1.71,1.1,1.22,2.45,3.18,1.71,4.76-2.69h3.18l5.25-2.94,4.15,1h8.18l2.69-3.92,14.9-4.9,9.65-1.23,4.15,2.69,2.93-.61,1.72,1.24-.25,3.41,2.07,1.47.48,7.09,6.47-2.33-1.71,3.43-2.93,1.47v2.69l4-.86,1.47,2.57-1.71,8.32,2.53,2.18,1,2.23,6.72,2.94,2.93-4.16,1.22.24v1.47l2.57,3.31,2.69.24v-1.1l3.78-2.69,4.4-.25,4.64-1.47,1.22-2.08,16.36-17,1.83-3.55,1.71-.62Z" />
  </g>
  <g id="Russia">
    <g>
      <path d="M116.38,179.37c.87.27,8.43,1,8.43,1l10.25,5.43.22,3.09-4.06,2.56h-4.91l-8.43-2.74,6.94,6.26.22,3.62,4.37,2.77,1.81-1-2.88-4.9,1.07-1.07,10,4.15v-1.6l-4.38-4,3.31-2.77h3.1l3.84,2.77h1l.54-1.43-4.38-5.71-1-3.62-1.28-1.49.21-1.28,5.66,1.49,1.07,1.81-1.07,3.09,2.78,2,2.56-.53,1.81-4.05,3.31-1.28h3.63l3.63-1.28.75.53-.75,2.24,1.49.53,1.81-2v-1.6l5.66-.75,1-.75,1.28.75,1.07,2h1.28L178.6,179l-1.6-3h2.56l7.47,1.7.75,1.06h3.09l5.87,2.34.74-1.6-5.13-3.84h-1.49l-1.81-3.84-1.28-1.28v-1l2-1.07-.12-3.27-.09-2.38,4.06.53,2.88-.53,1.49,1.28,1.82,5.65,6.2,7.88,2.24,1.81-.21,4.37-.74,1.07-6,1.49v1.28l4.37,1.28,3.31-.21-1-3.09,4.06-1.07.32-3.52L211.15,179l1.71-1.28,3.85,2.34H218l.32-1.07-4.91-3.3-4.59.32-4.38-6.18-1.81-2v-1.28l1.6-2.34,1.5.53,2.56,5.12,2.88-.21-.32-1.06-1.28-1.49,1.6-2.34,3.31.53,7.15,3.51,1.49,2.56,1.6.53.74-1.49L222.36,166l-8-1.62-.48-4.77,4.37-1.07,4.59-5.54,12.59-4.16,1.49,1.28,9.71-1.28.75-1-.21-2.34,1.13-.46,4.21-.28.53,1,3.1,1.6,10.24-2,2.78,1.49.54,1.28-.75,1.28,3.1,1.81-6.19,6.08-4.06.32.78.81,4.36-.33,4.79-1.55-.23-3.25,3.32,1,1.07-.53,1.28.53.21,1.28,1.07.43,1.28-2,9,1.28,3.52,2,4.7-1h2.24v-2l11.53.74,2.35,3.3,12.06,3.62.21-1.81,4.06.21L331,159l3.31.53.75-.53-.54-2.24L333,156v-1.71h11.31l.21,1.7,3.31,1.28,1.07-2.77,5.87.53,3.63,2.24s19.42-1.45,19.42-.75,5.54,3.4,5.66,3.62.75,1.28.75,1.28l6.94-2.56,11,1,3.09,1.81,3.1.53.75-.53-4.38-4.37,1.07-1,33.57,2.66,5.28,3,.54-1.6s3.72-.09,4.16,0,3.84,2,3.84,2l2-.43,1,2-.21.75,2.78,2-1.28,1.06-5.55-.53-2.14-1.06-3.31,1.28-4.8-1.49-1.28.75,1.71,2.56-.21,1.07h-2l1,2,6.19,1.49,3.63,2.88,4.27,1-.21,1.81-3.63.32-2.56,3.84v5.86l-3.52.21-3.1-1.28-1.49.53-1.28,2.56-2.35-1.06.54,4.9,8.43,8.42,3.31.74-.21,3.41,3.84,2.77.21,1.07-2.24.75v3.09l3.31,1.28v1.49l-.75.53,1.5,6.61L450.67,224l-3.43-3.16-3.51-2.28-7.58-6.38-3.74-2.78-4.06-4.9,1.81-4.26-.54-10-4.16-3.3-1-2.88-1.28-.43-.32,2,2.14,3.84v1.28l-2.88-.32-4.06-3v8.1l2.24,2.34-1.71,1.49-6.4,1.28-2.88-2.77-2.77.53v2.24l-14.09.54-1.07.75.75,12.57-.43,1.49-1.6,1.6.75,1.49,2.35.32,1.07,1.49h2v1.49l.75.53,2.56-2.56,5.87,1.6,13.88,17,2.78,16.62-1.28,8.2-3.09,2.56-4.27-1.81L411.4,268l-1.49,1-1.07-2-.43-10.23,3,1.49.53-2.77-2.57-12-1.28-.74-2.88,1.06-3.14,2.06-3.49-.66-2-2.85-9.71-1.6-5.66-6.92-5.34-3-9-3.09-6.19-1.06-2,1.6v1.28l2.56,1.49,1.75,2.75-.74,6.93-3.56,4.93-2-1.28-2.5,0-2.06-1.81-.88-.72L346.88,245,337,246.88l-7.47-2.34H316.26l-2.35-2.77L309,238.89l-5.12-.38-.75,1.45,3,7.11-4.59,1-4.16-.43-1.5-2.56h-2.78l-3.1-1.81-2.56.53-.54,1.7-3.22,3-3.12.4-1.88,2.75-3.09.53-1.71-3.09h-2.35l-9.44-4.77-.22-1.6-10.08-2-20.45-14-4,2.8-4.13-1.16-4.09.13-5-4.08-3.24-.24-1.74,1.46-12.94,10.24,1.81,2.34-.87,1,2.69,3.76L186,246l-7.32,3.19-4.16-1.7-2,.78-2.43,4.82-.23,4.82,5.44,3.83.86,1.81-.79,1.3-3.37.21-3.35,5.65,4.68,3.05.09.51,3.45,6.14-3.31,1.6-5.44-2.88L155.07,278l-12.24-7-2.35-2.24,1.07-1.07,2.77-.21-.75-2.56,1.75-1.84-.75-1.07-2.69.08-.19-.69,2.35-2.69,1-5.09-13-6.39-2.56-5.86-1.28,1.07-1.32-.08-5.3,1-.32-1,1.81-2.34-.21-1.07L120,237.47,119,230l-6.94-.42L110,223l-1.56-1.08-1.28-5.43,2.28-.77,3.52-.32-.75-1.28-1.94-.82,4.65-5.63,1.88-3-4.27-6.82-.49-3-.23-1.46-1.31-2.49,0-4.6-3-2.53-.85-2.77,3.41-.32,1-3.34h2.43l2.88,2Z" />
      <polygon points="94.69 231.22 98.22 232.5 98.54 235.59 95.66 235.06 89.04 235.06 91.6 232.82 93.63 232.28 94.69 231.22 94.69 231.22 94.69 231.22" />
      <polygon points="418.92 228.34 423.83 230.68 431.73 238.35 428.43 239.63 430.67 243.89 436.65 248.04 436.65 249 434.09 249.86 433.02 251.14 430.67 249.54 426.82 242.93 415.47 229.6 410.7 223.97 408.67 219.6 411.02 219.92 415.82 223.44 417.64 223.97 418.92 228.34 418.92 228.34 418.92 228.34" />
      <g>
        <ellipse cx="455.56" cy="237.69" rx="1.16" ry="1.25" />
        <path d="M455.56,237.44c-.07,0-.16.1-.16.25,0,.31.32.31.32,0C455.73,237.54,455.63,237.44,455.56,237.44Z" />
      </g>
      <polygon points="450.73 253.9 452.48 254.76 454.35 250.63 452.97 250.28 450.73 253.9" />
      <ellipse cx="455.51" cy="243.84" rx="1.24" ry="1.18" />
      <polygon points="454.25 230.13 454.48 233.05 455.68 232.92 455.54 229.99 454.25 230.13" />
      <polygon points="135.37 264.24 129.24 262.42 126.4 264.46 126.94 266.27 129.28 267.01 128.96 268.61 132.06 271.7 137.39 269.57 137.71 267.86 135.37 266.26 135.37 264.24" />
    </g>
    <polygon points="180.47 149.35 178.34 152.97 174.82 154.04 172.79 155.53 168.41 156.07 166.82 157.5 163.83 159.16 162.98 160.87 156.89 160.44 157.38 159.24 157.85 158.1 158.92 157.88 159.45 155.01 160.55 155.01 163.29 155.01 164.33 152.56 164.79 151.49 176.1 150.21 177.91 147.86 179.62 147.86 180.47 149.35 180.47 149.35 180.47 149.35" />
    <polygon points="162.76 163.96 165.54 168.86 168.63 171.63 168.63 172.91 161.48 172.37 157.64 170.35 155.61 170.67 154.54 168.54 156.36 166.3 156.89 163.74 162.76 163.96 162.76 163.96 162.76 163.96" />
    <polygon points="327.22 147.59 328.18 144.5 326.68 142.9 324.65 143.44 319.21 142.16 316.65 143.23 316.65 146.74 327.22 147.59" />
    <polyline points="330.53 153.67 333.83 150.57 332.02 149.83 328.5 152.18 329.25 153.67 330.53 153.67" />
    <polygon points="335.43 146.53 341.52 145.78 342.05 144.71 333.83 143.75 332.87 144.71 333.3 146.31 335.43 146.53" />
    <polygon points="152.52 179.84 153.06 177.81 151.24 177.07 150.49 178.56 151.03 180.05 152.52 179.84" />
    <polygon points="176.13 175.65 176.4 175.05 175.04 172.9 173.76 172.37 172.8 173.44 173.01 175.25 176.13 175.65" />
    <g>
      <polyline points="191.15 160.43 192.75 160.64 193.71 159.57 192.22 158.29 190.94 159.15 191.15 160.43" />
      <path d="M192.13,159.55h0Z" />
    </g>
  </g>
  <g id="India">
    <polygon points="226.55 361.84 229.33 362.17 229.34 370.38 219.86 381.05 215.93 389.43 211.35 389.75 210.54 399.28 219.86 406.66 218.72 409.78 204.99 413.4 205.48 417.01 208.58 417.48 211.69 419.31 210.87 420.95 208.58 421.28 208.58 423.25 212.51 428.33 217.58 430.3 222.32 429.48 222.65 420.94 225.43 418.15 226.57 419.63 225.75 424.88 229.02 434.24 230.17 449.18 238.03 463.46 240.74 472.35 252.59 491.86 251.28 494.16 254.88 502.86 259.95 503.68 265.02 497.77 263.88 495.8 266.98 489.88 267.47 484.63 270.9 473.63 268.28 462.96 283.16 446.04 287.9 437.01 295.74 429.46 295.74 424.37 300.55 420.09 300.49 417.38 301.63 417.43 302.77 420.92 306.69 420.42 309.47 416.4 304.73 411.39 303.58 405.81 300.31 397.6 303.43 396.49 305.87 397.6 309.47 401.54 313.39 400.72 319.94 402.36 321.9 408.6 327.14 414.18 327.46 409.41 331.71 407.11 330.24 397.26 334.16 392.01 341.52 386.92 336.45 379.04 323.53 379.53 314.36 388.58 312.9 389.72 310.94 392.84 303.58 392.51 301.95 388.08 298.43 386.49 296.06 395.96 277.4 392.21 260.9 385.98 257.63 383.82 257.22 380.06 256.8 376.27 258.91 373.5 245.77 365.8 244.7 364.46 246.99 359.37 245.35 353.13 247.31 352.63 249.28 346.72 249.27 343.6 245.02 342.78 238.23 344.63 232.92 346.07 223.11 346.4 219.84 349.19 220.66 358.55 226.55 361.84 226.55 361.84 226.55 361.84" />
  </g>
</svg>
